# xmcd
#
# Track frame offsets: 
#        150
#        15075
#        34386
#        51196
#        72330
#        89538
#        106715
#        131545
#        145707
#        160204
#        177580
#        187921
#        201398
#        216024
#        229984
#        249719
#        260593
#        272527
#        286881
#        302631
#
# Disc length: 4245 seconds
#
# Revision: 0
# Processed by: cddbd v1.5.2PL0 Copyright (c) Steve Scherf et al.
# Submitted via: ExactAudioCopyFreeDBPlugin 1.0
#
DISCID=21109314
DTITLE=Lacy J. Dalton - Highway Diner and Blue Eyed Blues
DYEAR=2014
DGENRE=Country
TTITLE0=Working Class Man
TTITLE1=12:05
TTITLE2=Changing All the Time
TTITLE3=Taking it all in Stride
TTITLE4=Can't See Me Without You
TTITLE5=This Ol' Town
TTITLE6=Up with the Wind
TTITLE7=Boomtown
TTITLE8=Gone Again
TTITLE9=Closing Time
TTITLE10=Have I Got a Heart For You
TTITLE11=It's a Dirty Job
TTITLE12=Blue Eyed Blues
TTITLE13=That's Good - That's Bad
TTITLE14=Gotta Serve Somebody
TTITLE15=I'll Love Them Whatever They Are
TTITLE16=Hillbilly Girl with the Blues
TTITLE17=16th Avenue
TTITLE18=My Old Yellow Car
TTITLE19=Love Gone Cold
EXTD=
EXTT0=
EXTT1=
EXTT2=
EXTT3=
EXTT4=
EXTT5=
EXTT6=
EXTT7=
EXTT8=
EXTT9=
EXTT10=
EXTT11=
EXTT12=
EXTT13=
EXTT14=
EXTT15=
EXTT16=
EXTT17=
EXTT18=
EXTT19=
PLAYORDER=
